PathFileType	4	(X/Y/Z)	s07c0001.trc
DataRate	CameraRate	NumFrames	NumMarkers	Units	OrigDataRate	OrigDataStartFrame	OrigNumFrames
200	200	6	49	mm	200	250	2000
Frame#	Time	racr			lacr			c7			jug			rlel			rdr			llel			ldr			s2			lic			ric			lasi			rasi			rpsi			lpsi			rgt			lgt			rth1			rth2			rth3			rth4			rlfc			rmfc			rsh1			rsh2			rsh3			rsh4			rlmal			rmmal			rcal			rtoe			rmt5			rmt1			lth1			lth2			lth4			lth3			llfc			lmfc			lsh1			lsh2			lsh3			lsh4			llmal			lmmal			lcal			ltoe			lmt1			lmt5			
		X1	Y1	Z1	X2	Y2	Z2	X3	Y3	Z3	X4	Y4	Z4	X5	Y5	Z5	X6	Y6	Z6	X7	Y7	Z7	X8	Y8	Z8	X9	Y9	Z9	X10	Y10	Z10	X11	Y11	Z11	X12	Y12	Z12	X13	Y13	Z13	X14	Y14	Z14	X15	Y15	Z15	X16	Y16	Z16	X17	Y17	Z17	X18	Y18	Z18	X19	Y19	Z19	X20	Y20	Z20	X21	Y21	Z21	X22	Y22	Z22	X23	Y23	Z23	X24	Y24	Z24	X25	Y25	Z25	X26	Y26	Z26	X27	Y27	Z27	X28	Y28	Z28	X29	Y29	Z29	X30	Y30	Z30	X31	Y31	Z31	X32	Y32	Z32	X33	Y33	Z33	X34	Y34	Z34	X35	Y35	Z35	X36	Y36	Z36	X37	Y37	Z37	X38	Y38	Z38	X39	Y39	Z39	X40	Y40	Z40	X41	Y41	Z41	X42	Y42	Z42	X43	Y43	Z43	X44	Y44	Z44	X45	Y45	Z45	X46	Y46	Z46	X47	Y47	Z47	X48	Y48	Z48	X49	Y49	Z49	
250	1.2500	188.841507	1567.922119	565.364929	218.463959	1569.033447	195.888077	158.608978	1607.915039	376.783905	278.922516	1515.927368	387.596710	253.420670	1221.774048	694.861145	402.660675	983.024231	807.277893	292.899536	1214.963501	98.106567	447.367249	977.040283	-5.449925	123.680565	1061.569458	367.669464	267.163544	1144.162598	231.958221	255.709915	1131.646729	536.339111	334.685394	1075.212646	265.534851	304.011292	1072.484619	528.858887	134.092850	1095.909546	424.301727	152.973785	1103.447754	312.577240	219.298630	975.610413	564.411255	252.422760	973.724976	214.479996	227.064072	846.976013	566.407288	249.401199	761.801086	558.584534	228.489304	679.138123	549.179260	285.741699	763.536926	550.995911	225.818176	537.756470	514.347656	234.907059	527.223755	418.616516	184.908829	400.420593	530.630127	201.378555	314.105286	510.574799	172.309830	232.798187	504.430298	224.613983	317.869965	478.053162	159.100357	92.014290	488.683716	199.805771	105.726219	410.534180	113.972778	41.468620	447.069153	395.560516	85.752335	505.357269	311.094391	36.028015	557.055237	328.257660	43.816097	449.513336	261.197968	856.455750	200.183533	283.261871	771.468445	207.124603	317.803223	771.912964	221.630112	259.070129	686.183228	214.706787	252.440094	531.389587	242.239502	246.250961	515.285034	330.170288	216.577057	396.631409	216.700089	232.145340	314.264038	237.633850	204.215149	227.478210	233.138748	241.933426	317.378052	277.846649	190.875168	91.593475	243.812912	225.366287	111.760178	325.008942	141.601929	37.826210	280.127472	423.339417	92.617958	249.235748	359.175446	47.476551	297.325409	345.443604	52.868542	192.036942	
251	1.2550	188.845428	1567.910400	565.379883	218.482895	1569.047729	195.896759	158.627213	1607.897949	376.779144	278.930756	1515.924316	387.620239	253.445999	1221.758911	694.872192	402.693939	983.036255	807.301025	292.909668	1214.979492	98.142731	447.385193	977.056030	-5.432673	123.689003	1061.574951	367.687225	267.161621	1144.160156	231.973755	255.724609	1131.652344	536.338196	334.686218	1075.212769	265.535797	304.038147	1072.486084	528.861084	134.112183	1095.889648	424.322968	152.981232	1103.443481	312.597504	219.321594	975.610535	564.425598	252.430573	973.715393	214.494492	227.100555	846.980774	566.397644	249.430481	761.817261	558.595459	228.526703	679.143311	549.180542	285.759094	763.542664	551.008240	225.843460	537.747314	514.349243	234.909302	527.219360	418.617950	184.934555	400.425323	530.636780	201.407608	314.099792	510.573456	172.330551	232.787704	504.431732	224.641068	317.837494	478.051697	159.129578	92.027946	488.670380	199.823730	105.730110	410.541138	113.992332	41.487431	447.079742	395.575592	85.754272	505.374847	311.087158	36.025490	557.043274	328.279297	43.827763	449.518616	261.196991	856.460754	200.195816	283.263824	771.475464	207.103409	317.820099	771.912415	221.670700	259.072418	686.169006	214.714172	252.415176	531.403992	242.224548	246.298233	515.277771	330.170715	216.550995	396.625671	216.692566	232.161682	314.265961	237.645874	204.312546	227.380768	233.184586	241.937027	317.364166	277.855316	190.890320	91.602821	243.821594	225.348663	111.780510	325.002655	141.609924	37.830753	280.146545	423.356415	92.625298	249.249573	359.136292	47.336563	297.308563	345.465424	52.868912	192.042221	
252	1.2600	188.833572	1567.921997	565.393616	218.465805	1569.051514	195.898590	158.598618	1607.918091	376.802704	278.905548	1515.924316	387.610474	253.432022	1221.774536	694.901123	402.701050	983.070068	807.332642	292.838928	1215.021606	97.699448	447.382599	977.054749	-5.426234	123.700027	1061.563110	367.699066	267.139557	1144.148682	231.962875	255.744217	1131.651367	536.350159	334.674896	1075.233887	265.524536	304.044464	1072.490845	528.869690	134.106461	1095.883301	424.340210	152.968185	1103.421265	312.605682	219.338120	975.606018	564.438232	252.431122	973.704590	214.495987	227.119385	846.986023	566.403198	249.450531	761.804688	558.590027	228.552597	679.138184	549.183655	285.798157	763.541931	550.995483	225.898041	537.769958	514.367859	234.920151	527.226379	418.628845	184.954315	400.424835	530.643860	201.707809	314.209534	510.809326	172.351166	232.779312	504.428162	224.673248	318.101593	478.253479	159.147736	92.039772	488.673523	199.795242	105.737762	410.534576	113.996132	41.496887	447.073639	395.576294	85.768387	505.373566	311.087860	36.024860	557.043518	328.257263	43.813271	449.521240	261.198395	856.458862	200.194473	283.261902	771.468445	207.124649	317.816010	771.912537	221.645828	259.083221	686.176270	214.716797	252.439148	531.416443	242.239243	246.293594	515.286194	330.168518	216.566910	396.626801	216.698837	232.162064	314.261505	237.669312	204.206467	227.487091	233.133667	241.951233	317.354401	277.854187	190.892639	91.609329	243.815201	225.369034	111.760391	325.020355	141.603439	37.832153	280.146057	423.358795	92.617920	249.248383	359.181396	47.478165	297.342896	345.463074	52.879929	192.051147	
253	1.2650	188.821579	1567.942383	565.409302	218.432861	1569.045532	195.916611	158.578629	1607.905029	376.826477	278.891876	1515.922607	387.608246	253.456863	1221.782349	694.902771	402.706604	983.082275	807.359985	292.923157	1214.996216	98.119255	447.380951	977.078552	-5.424765	123.701088	1061.557617	367.713318	267.141083	1144.147827	231.989090	255.742752	1131.646606	536.351624	334.685699	1075.219727	265.538666	304.058533	1072.495239	528.877625	134.132019	1095.885010	424.359802	152.975433	1103.432617	312.634216	219.368942	975.602295	564.445374	252.417358	973.714294	214.511871	227.162506	846.981628	566.404175	249.478210	761.801880	558.585693	228.589813	679.137085	549.180908	285.826721	763.551392	551.015808	225.924164	537.758301	514.372803	234.965530	527.233948	418.612976	184.992020	400.430176	530.648010	201.724976	314.213318	510.806549	172.359467	232.783447	504.440613	224.696411	318.095856	478.252289	159.158661	92.039330	488.675812	199.805099	105.736900	410.526642	113.990555	41.492054	447.065948	395.573792	85.768295	505.387817	311.103088	36.010967	557.047852	328.258667	43.811733	449.516724	261.194946	856.461609	200.206772	283.261902	771.468506	207.124680	317.804199	771.932190	221.621460	259.066071	686.175964	214.728745	252.457230	531.409851	242.227173	246.306564	515.274353	330.183685	216.570251	396.627869	216.710190	232.154968	314.272430	237.646927	204.329056	227.377731	233.188782	241.941864	317.373291	277.842285	190.880707	91.611473	243.810287	225.345367	111.772659	325.018646	141.615829	37.823345	280.142914	423.345001	92.619232	249.225372	359.126831	47.381855	297.303162	345.457733	52.882027	192.045502	
254	1.2700	188.828308	1567.893799	565.421021	218.434769	1569.063354	195.923523	158.577286	1607.907227	376.825348	278.877014	1515.916870	387.632843	253.446060	1221.777954	694.933044	402.733917	983.102783	807.389038	292.906769	1215.005249	98.144241	447.385620	977.083069	-5.415356	123.691643	1061.566406	367.735474	267.115143	1144.149902	231.986145	255.763245	1131.645752	536.359863	334.697815	1075.220581	265.554352	304.080475	1072.495850	528.879700	134.129898	1095.869629	424.380035	152.978485	1103.414062	312.635925	219.382507	975.599487	564.452881	252.417145	973.708923	214.530731	227.184174	846.985229	566.415283	249.518768	761.816467	558.585815	228.622620	679.141541	549.202087	285.868011	763.561829	551.013672	225.947464	537.767761	514.366211	235.000244	527.225952	418.633087	185.014664	400.420319	530.655884	201.743439	314.237305	510.839691	172.368896	232.788528	504.438690	224.694397	318.094635	478.261475	159.154434	92.027390	488.672333	199.806519	105.736404	410.531952	113.987900	41.489384	447.072662	395.588562	85.757660	505.362854	311.057281	36.018059	557.056458	328.270233	43.802025	449.503693	261.194855	856.460693	200.211441	283.254974	771.482361	207.108627	317.805054	771.930115	221.652359	259.072083	686.174194	214.729187	252.443008	531.410400	242.238434	246.303757	515.284180	330.184570	216.527298	396.703339	216.661667	232.174332	314.267578	237.670898	204.234467	227.482040	233.146530	241.948532	317.358429	277.862518	190.890762	91.601097	243.831024	225.376877	111.761581	325.016052	141.602814	37.830246	280.155151	423.341309	92.623566	249.233978	359.162689	47.472500	297.310822	345.435455	52.862911	192.044785	
255	1.2750	188.808411	1567.914795	565.434509	218.417648	1569.047485	195.957016	158.546234	1607.908447	376.865295	278.876984	1515.918945	387.632812	253.458313	1221.782349	694.946045	402.745026	983.095520	807.405640	292.913940	1215.016479	98.171898	447.385193	977.090027	-5.405082	123.701248	1061.553101	367.751465	267.115814	1144.142700	231.988632	255.784210	1131.645142	536.372375	334.666077	1075.233032	265.544159	304.084778	1072.497437	528.883850	134.126770	1095.858643	424.380859	152.978668	1103.403687	312.658295	219.410843	975.597473	564.464600	252.404114	973.719543	214.520691	227.211746	846.978516	566.425171	249.542953	761.812561	558.596680	228.655121	679.135376	549.201538	285.872375	763.549011	551.010986	225.978546	537.766296	514.375427	235.032578	527.225647	418.636200	185.048508	400.430573	530.652222	201.780853	314.204132	510.819702	172.380722	232.779037	504.443604	224.728302	318.078033	478.243866	159.133713	92.032257	488.674347	199.805008	105.736519	410.527771	114.019287	41.447105	447.096130	395.574249	85.749733	505.350281	311.062378	36.020824	557.062317	328.260437	43.802170	449.524933	261.193451	856.472778	200.217651	283.279480	771.467285	207.155594	317.807892	771.905884	221.649460	259.085571	686.182251	214.751541	252.474854	531.403931	242.254211	246.303329	515.278687	330.197174	216.577545	396.642792	216.732880	232.167130	314.265869	237.670273	204.214523	227.486191	233.145096	241.944046	317.363312	277.852173	190.880875	91.607582	243.832947	225.356476	111.763710	325.021027	141.627411	37.824799	280.152618	423.344879	92.628677	249.236618	359.170837	47.485275	297.333099	345.455200	52.869595	192.042389	
